<svg xmlns="http://www.w3.org/2000/svg" xmlns:xlink="http://www.w3.org/1999/xlink"><symbol id="sprite-arrow" fill="none" viewBox="0 0 18 33"><path stroke="currentColor" d="m1 .4 16 16-16 16"/></symbol><use xlink:href="#sprite-arrow" width="18" height="33"/><view id="sprite-arrow-view" viewBox="0 0 18 33"/><symbol id="sprite-logo" fill="none" viewBox="0 0 100 20"><path fill="#fff" d="M86.91.28h2.78l3.2 13.3 3.2-13.3h2.46l-4.47 19.45h-2.37zm-1.12 0h2.64l.41 12.83v6.62h-3.06zm11.55 0h2.66v19.45h-3.05v-6.62zm-21.24 0 2.4 8.77 2.38-8.77h3.45l-4.24 12.39v7.06h-3.19v-7.07l-4.24-12.38zm-3.84 9.23v8.02q-.34.44-.99 1.03-.63.57-1.67 1.01-1.03.43-2.5.43-1.32 0-2.39-.5-1.06-.51-1.82-1.54-.76-1.05-1.16-2.6-.4-1.56-.4-3.7v-3.31q0-2.11.38-3.67.39-1.58 1.12-2.62t1.75-1.55q1.03-.51 2.32-.51 1.77 0 2.9.74 1.15.73 1.74 2.17.59 1.45.7 3.54h-3.05q-.08-1.23-.34-1.92-.24-.7-.7-.99t-1.18-.3q-.62 0-1.09.27-.46.27-.78.89-.31.61-.46 1.57t-.15 2.35v3.34q0 1.38.17 2.36.17.97.5 1.59.35.61.87.89.53.27 1.25.27.57 0 .91-.15t.55-.3q.22-.18.36-.27v-3.58h-2.26v-2.96zm-23.71-9.23h5.04q1.58 0 2.7.67 1.1.67 1.7 1.98.6 1.3.6 3.23 0 1.57-.35 2.7-.34 1.1-.98 1.85-.64.74-1.53 1.18l-.96.7h-4.1v-3.24h2.84q.65 0 1.07-.35.43-.36.64-1 .21-.65.21-1.52 0-.92-.2-1.58-.18-.67-.59-1.01-.4-.36-1.05-.36h-1.88v16.2h-3.16zm7.14 19.45-2.88-8.67 3.31-.01 2.95 8.5v.18zm-9.78-3.23v3.23h-6.84v-3.23zm-5.86-16.22v19.45h-3.16v-19.45zm4.94 7.88v3.14h-5.92v-3.14zm.9-7.88v3.25h-6.82v-3.25zm-15.45 12.6h-3.22v-3.25h3.22q.67 0 1.1-.37.42-.38.62-1.03.2-.67.2-1.5a6 6 0 0 0-.21-1.56q-.2-.74-.62-1.19-.4-.45-1.09-.45h-2.2v16.2h-3.16v-19.45h5.36q1.59 0 2.74.83 1.14.83 1.75 2.28t.61 3.32-.61 3.27q-.61 1.38-1.75 2.14t-2.74.76m-10.94-12.6h3.16v13.36q0 2.24-.67 3.66-.66 1.4-1.83 2.06-1.17.64-2.67.64-1.51 0-2.7-.64-1.17-.66-1.83-2.06-.65-1.41-.65-3.66v-13.36h3.16v13.36q0 1.27.23 1.95t.68.93q.45.24 1.11.24t1.1-.24q.44-.25.67-.93t.24-1.95zm-12.37 14.34q0-.53-.07-.95a2 2 0 0 0-.33-.8 3 3 0 0 0-.7-.71 8 8 0 0 0-1.19-.75 26 26 0 0 1-1.7-.96 8 8 0 0 1-1.47-1.2 5 5 0 0 1-1.05-1.6q-.38-.94-.38-2.2 0-1.23.36-2.23a5 5 0 0 1 1.03-1.71q.67-.72 1.57-1.11.9-.38 2.02-.39 1.51 0 2.62.78 1.1.77 1.72 2.12t.61 3.1h-3.15q0-.82-.2-1.45-.18-.64-.6-1-.4-.36-1.05-.36-.6 0-1 .3t-.6.82a3 3 0 0 0-.18 1.15q0 .48.19.86.2.38.53.69.33.29.79.57t1.01.55q1.07.52 1.9 1.15.82.61 1.37 1.39.55.76.83 1.72t.28 2.19-.34 2.22a5 5 0 0 1-.99 1.7 4.4 4.4 0 0 1-1.57 1.1q-.9.39-2.03.39a6 6 0 0 1-2.06-.37 5 5 0 0 1-1.72-1.17q-.74-.79-1.16-1.99-.42-1.21-.42-2.87h3.17q0 .88.14 1.51.14.61.43.99.3.36.71.55.44.17.99.17.62 0 1-.3.37-.29.53-.78t.16-1.13"/></symbol><use xlink:href="#sprite-logo" width="100" height="20" y="33"/><view id="sprite-logo-view" viewBox="0 33 100 20"/><symbol id="sprite-minus" fill="#1C3374" viewBox="0 0 22 22"><path stroke="#1C3374" d="M21 11h-20"/></symbol><use xlink:href="#sprite-minus" width="22" height="22" y="53"/><view id="sprite-minus-view" viewBox="0 53 22 22"/><symbol id="sprite-ok" fill="none" viewBox="0 0 22 22"><path fill="currentColor" d="M11 3.33c1.32 0 2.4 1.05 2.4 2.35s-1.08 2.35-2.4 2.35-2.4-1.06-2.4-2.35c0-1.3 1.08-2.35 2.4-2.35m0 8.02c3.2 0 5.8-2.54 5.8-5.67s-2.6-5.68-5.8-5.68-5.79 2.55-5.79 5.68 2.6 5.68 5.79 5.68m2.34 4.63a11 11 0 0 0 3.37-1.37 1.64 1.64 0 0 0 .53-2.3 1.7 1.7 0 0 0-2.34-.52 7.5 7.5 0 0 1-7.8 0 1.7 1.7 0 0 0-2.34.53 1.64 1.64 0 0 0 .53 2.29 11 11 0 0 0 3.37 1.37l-3.24 3.17a1.64 1.64 0 0 0 0 2.35 1.73 1.73 0 0 0 2.4 0l3.18-3.12 3.18 3.12a1.7 1.7 0 0 0 2.4 0 1.64 1.64 0 0 0 0-2.35z"/></symbol><use xlink:href="#sprite-ok" width="22" height="22" y="75"/><view id="sprite-ok-view" viewBox="0 75 22 22"/><symbol id="sprite-play" fill="none" viewBox="0 0 13 15"><path fill="#fff" d="m13 7.5-12.75 7.36v-14.72z"/></symbol><use xlink:href="#sprite-play" width="13" height="15" y="97"/><view id="sprite-play-view" viewBox="0 97 13 15"/><symbol id="sprite-plus" fill="#1C3374" viewBox="0 0 20 20"><path stroke="#1C3374" d="M10 0v10m0 10v-10m0 0h10m-10 0h-10"/></symbol><use xlink:href="#sprite-plus" width="20" height="20" y="112"/><view id="sprite-plus-view" viewBox="0 112 20 20"/><symbol id="sprite-reddit" fill="none" viewBox="0 0 22 22"><path fill="currentColor" d="M12.95.5a2.1 2.1 0 0 0-1.63.83c-.39.5-.6 1.1-.76 1.73a15 15 0 0 0-.34 3.17c-1.8.12-3.43.68-4.79 1.55a2.8 2.8 0 0 0-1.85-.75 2.4 2.4 0 0 0-1.92 1 3.8 3.8 0 0 0 .27 4.64 7 7 0 0 0-.12 1.18c0 4.23 4.11 7.65 9.19 7.65s9.2-3.43 9.2-7.65q-.01-.6-.13-1.18a3.8 3.8 0 0 0 .27-4.63 2.4 2.4 0 0 0-1.92-1.01c-.64 0-1.3.26-1.85.75a10 10 0 0 0-4.77-1.56c.03-.93.1-1.9.27-2.64q.17-.7.39-.98c.22-.28.25-.26.49-.26.52 0 .58.18.9.6.15.22.34.5.63.75.29.27.72.5 1.19.5v-1.85c-.13 0-.16 0-.24-.09q-.13-.13-.4-.51c-.35-.5-1.05-1.24-2.08-1.24m5.06.17c-1.22 0-2.2 1.16-2.2 2.6 0 1.42.98 2.58 2.2 2.58s2.18-1.16 2.18-2.59-.98-2.59-2.19-2.59m0 .92c.78 0 1.41.75 1.41 1.67s-.63 1.67-1.4 1.67-1.42-.75-1.42-1.67.64-1.67 1.41-1.67m-7 6.07c4.3 0 7.95 2.84 7.95 6.19s-3.64 6.18-7.95 6.18-7.95-2.83-7.95-6.18 3.64-6.19 7.95-6.19m-7.4.84q.34 0 .66.17-1.18 1.05-1.82 2.42c-.3-.72-.21-1.6.15-2.07a1.2 1.2 0 0 1 1.02-.52m14.78 0q.62 0 1.02.51c.36.48.44 1.37.15 2.08a8 8 0 0 0-1.82-2.42 2 2 0 0 1 .65-.17m-10.5 2.3c-.78 0-1.41.75-1.41 1.67s.63 1.67 1.4 1.67 1.42-.75 1.42-1.67-.63-1.67-1.41-1.67m6.22 0c-.78 0-1.4.75-1.4 1.67s.62 1.67 1.4 1.67 1.41-.75 1.41-1.67-.63-1.67-1.4-1.67m-6.99 5.67c.5 1.2 2.03 2.38 3.87 2.38s3.4-1.17 3.89-2.38c-.9.68-2.32 1.15-3.89 1.15s-2.97-.47-3.87-1.15"/></symbol><use xlink:href="#sprite-reddit" width="22" height="22" y="132"/><view id="sprite-reddit-view" viewBox="0 132 22 22"/><symbol id="sprite-rub" fill="none" viewBox="0 0 24 34"><path fill="#102654" fill-rule="evenodd" d="M14.8 5.21h-6.8v8.65h6.8c2.43 0 4.4-1.94 4.4-4.32a4.36 4.36 0 0 0-4.4-4.33m-11.6-4.71v18.07h11.6c5.08 0 9.2-4.04 9.2-9.03s-4.12-9.04-9.2-9.04z" clip-rule="evenodd"/><path fill="#102654" fill-rule="evenodd" d="M0 13.86h4.8v4.71h-4.8z" clip-rule="evenodd"/><path fill="#102654" fill-rule="evenodd" d="M2.93 22.75v-8.1h4.8v8.1h9.07v4.72h-9.07v6.03h-4.8v-6.03h-2.93v-4.72z" clip-rule="evenodd"/></symbol><use xlink:href="#sprite-rub" width="24" height="34" y="154"/><view id="sprite-rub-view" viewBox="0 154 24 34"/><symbol id="sprite-vk" fill="none" viewBox="0 0 22 22"><path fill="currentColor" d="M21.8 15.7c-.06-.1-.42-.85-2.18-2.41-1.84-1.64-1.6-1.37.62-4.2 1.36-1.72 1.9-2.77 1.73-3.22-.16-.43-1.16-.32-1.16-.32l-3.3.02s-.25-.03-.43.07-.3.34-.3.34-.52 1.33-1.22 2.47c-1.47 2.39-2.06 2.51-2.3 2.37-.56-.35-.42-1.4-.42-2.14 0-2.31.37-3.28-.72-3.53a6 6 0 0 0-1.54-.15c-1.18 0-2.18 0-2.74.27-.38.18-.67.57-.5.6.22.02.72.12.98.46.34.44.33 1.43.33 1.43s.2 2.73-.46 3.07c-.44.23-1.06-.24-2.37-2.41-.67-1.11-1.18-2.34-1.18-2.34s-.1-.23-.27-.35a1.4 1.4 0 0 0-.51-.2l-3.14.02s-.47.01-.65.2c-.15.18-.01.54-.01.54s2.46 5.5 5.25 8.28c2.55 2.55 5.46 2.38 5.46 2.38h1.3s.4-.04.6-.25.19-.55.19-.55-.03-1.69.8-1.94c.8-.24 1.84 1.63 2.93 2.35.83.55 1.47.43 1.47.43l2.94-.04s1.53-.1.8-1.25"/></symbol><use xlink:href="#sprite-vk" width="22" height="22" y="188"/><view id="sprite-vk-view" viewBox="0 188 22 22"/></svg>